<mxfile host="app.diagrams.net" agent="Mozilla/5.0 (Macintosh; Intel Mac OS X 10_15_7) AppleWebKit/537.36 (KHTML, like Gecko) Chrome/130.0.0.0 Safari/537.36" version="24.8.6">
  <diagram id="V7B4Adpet9uSPmfZ2MFj" name="Overview">
    <mxGraphModel dx="898" dy="-304" grid="0" gridSize="10" guides="1" tooltips="1" connect="1" arrows="1" fold="1" page="0" pageScale="1" pageWidth="583" pageHeight="413" background="none" math="0" shadow="1">
      <root>
        <mxCell id="0" />
        <mxCell id="1" parent="0" />
        <mxCell id="lfUTlDc4wEPYXqtzGq7_-1" value="" style="fillColor=none;strokeColor=default;dashed=1;verticalAlign=top;fontStyle=0;fontColor=#232F3D;whiteSpace=wrap;html=1;shadow=0;movable=1;resizable=1;rotatable=1;deletable=1;editable=1;locked=0;connectable=1;" parent="1" vertex="1">
          <mxGeometry y="826" width="760" height="413" as="geometry" />
        </mxCell>
        <mxCell id="lfUTlDc4wEPYXqtzGq7_-2" value="" style="fillColor=none;strokeColor=#5A6C86;dashed=1;verticalAlign=top;fontStyle=0;fontColor=#5A6C86;whiteSpace=wrap;html=1;" parent="1" vertex="1">
          <mxGeometry x="592" y="840" width="151" height="390" as="geometry" />
        </mxCell>
        <mxCell id="tuFBvk_88zkTL_cLm5_9-24" value="AWS" style="points=[[0,0],[0.25,0],[0.5,0],[0.75,0],[1,0],[1,0.25],[1,0.5],[1,0.75],[1,1],[0.75,1],[0.5,1],[0.25,1],[0,1],[0,0.75],[0,0.5],[0,0.25]];outlineConnect=0;gradientColor=none;html=1;whiteSpace=wrap;fontSize=12;fontStyle=0;container=1;pointerEvents=0;collapsible=0;recursiveResize=0;shape=mxgraph.aws4.group;grIcon=mxgraph.aws4.group_aws_cloud_alt;strokeColor=#232F3E;fillColor=none;verticalAlign=top;align=left;spacingLeft=30;fontColor=#232F3E;dashed=0;rounded=1;" parent="1" vertex="1">
          <mxGeometry x="153" y="840" width="422" height="390" as="geometry" />
        </mxCell>
        <mxCell id="chfDgAv3UPU1zFlklX3F-7" value="" style="fillColor=none;strokeColor=#5A6C86;dashed=1;verticalAlign=top;fontStyle=0;fontColor=#5A6C86;whiteSpace=wrap;html=1;" parent="tuFBvk_88zkTL_cLm5_9-24" vertex="1">
          <mxGeometry x="10" y="41" width="404" height="337" as="geometry" />
        </mxCell>
        <mxCell id="nscVDXiTjaIWTb4TKJuX-2" value="Lambda Runtime" style="fillColor=none;strokeColor=#5A6C86;dashed=1;verticalAlign=top;fontStyle=0;fontColor=#5A6C86;whiteSpace=wrap;html=1;" vertex="1" parent="tuFBvk_88zkTL_cLm5_9-24">
          <mxGeometry x="28" y="256" width="368" height="111" as="geometry" />
        </mxCell>
        <mxCell id="deeNJldHTBCf-zLZ4GmC-29" value="Lambda Execution Environment" style="sketch=0;outlineConnect=0;fontColor=#232F3E;fillColor=#ED7100;strokeColor=#ffffff;dashed=0;verticalLabelPosition=middle;verticalAlign=middle;align=left;html=1;fontSize=12;fontStyle=0;aspect=fixed;shape=mxgraph.aws4.resourceIcon;resIcon=mxgraph.aws4.lambda;perimeterSpacing=5;points=[[0,0.33,0,0,0],[0,0.67,0,0,0]];rounded=1;labelPosition=right;spacingRight=300;spacing=7;" parent="tuFBvk_88zkTL_cLm5_9-24" vertex="1">
          <mxGeometry x="10" y="41" width="20" height="20" as="geometry" />
        </mxCell>
        <mxCell id="chfDgAv3UPU1zFlklX3F-11" value="Lambda Function" style="fillColor=none;strokeColor=#5A6C86;dashed=1;verticalAlign=top;fontStyle=0;fontColor=#5A6C86;whiteSpace=wrap;html=1;" parent="tuFBvk_88zkTL_cLm5_9-24" vertex="1">
          <mxGeometry x="25" y="72" width="145" height="140" as="geometry" />
        </mxCell>
        <mxCell id="chfDgAv3UPU1zFlklX3F-10" value="Lambda Layer" style="fillColor=none;strokeColor=#5A6C86;dashed=1;verticalAlign=top;fontStyle=0;fontColor=#5A6C86;whiteSpace=wrap;html=1;" parent="tuFBvk_88zkTL_cLm5_9-24" vertex="1">
          <mxGeometry x="246" y="72" width="145" height="139" as="geometry" />
        </mxCell>
        <mxCell id="chfDgAv3UPU1zFlklX3F-8" value="Function Code" style="shape=image;verticalLabelPosition=top;labelBackgroundColor=none;verticalAlign=bottom;aspect=fixed;imageAspect=0;image=data:image/svg+xml,PHN2ZyB4bWxucz0iaHR0cDovL3d3dy53My5vcmcvMjAwMC9zdmciIHdpZHRoPSIyNTYiIHZpZXdCb3g9IjAgMCAyNTYgMjg5IiBwcmVzZXJ2ZUFzcGVjdFJhdGlvPSJ4TWlkWU1pZCIgaGVpZ2h0PSIyODkiPjxwYXRoIGZpbGw9IiM1MzllNDMiIGQ9Im0xMjcuOTk5OTk5IDI4OC40NjM3NzFjLTMuOTc1MTU1IDAtNy42ODUzLTEuMDYwMDQzLTExLjEzMDQzNS0yLjkxNTExNWwtMzUuMjQ2Mzc1Ni0yMC45MzU4MThjLTUuMzAwMjA4NC0yLjkxNTExNC0yLjY1MDEwMy0zLjk3NTE1Ni0xLjA2MDA0MjYtNC41MDUxNzcgNy4xNTUyODAxLTIuMzg1MDkxIDguNDgwMzMxNy0yLjkxNTExNCAxNS45MDA2MjMtNy4xNTUyOC43OTUwMjkxLS41MzAwMiAxLjg1NTA3MTctLjI2NTAwOSAyLjY1MDEwMy4yNjUwMTFsMjcuMDMxMDU1MiAxNi4xNjU2MzJjMS4wNjAwNDMuNTMwMDIxIDIuMzg1MDk0LjUzMDAyMSAzLjE4MDEyNiAwbDEwNS43MzkxMjktNjEuMjE3MzljMS4wNjAwNDMtLjUzMDAyMyAxLjU5MDA2My0xLjU5MDA2MyAxLjU5MDA2My0yLjkxNTExNXYtMTIyLjE2OTc3MjNjMC0xLjMyNTA1MzgtLjUzMDAyLTIuMzg1MDk0MS0xLjU5MDA2My0yLjkxNTExNDNsLTEwNS43MzkxMjktNjAuOTUyMzgxOGMtMS4wNjAwNDMtLjUzMDAyMDEtMi4zODUwOTQtLjUzMDAyMDEtMy4xODAxMjYgMGwtMTA1LjczOTEzMTYgNjAuOTUyMzgxOGMtMS4wNjAwNDAzLjUzMDAyMDItMS41OTAwNjA1IDEuODU1MDcxNy0xLjU5MDA2MDUgMi45MTUxMTQzdjEyMi4xNjk3NzIzYzAgMS4wNjAwNDEuNTMwMDIwMiAyLjM4NTA5MiAxLjU5MDA2MDUgMi45MTUxMTVsMjguODg2MTI5MyAxNi42OTU2NTJjMTUuNjM1NjExNyA3Ljk1MDMwOSAyNS40NDA5OTQ5LTEuMzI1MDUyIDI1LjQ0MDk5NDktMTAuNjAwNDE1di0xMjAuNTc5NzEyYzAtMS41OTAwNjA1IDEuMzI1MDUxNS0zLjE4MDEyMzIgMy4xODAxMjMyLTMuMTgwMTIzMmgxMy41MTU1Mjg4YzEuNTkwMDYyNyAwIDMuMTgwMTIzMiAxLjMyNTA1MTUgMy4xODAxMjMyIDMuMTgwMTIzMnYxMjAuNTc5NzEyYzAgMjAuOTM1ODE4LTExLjM5NTQ0MzYgMzMuMTI2MjkzLTMxLjI3MTIyMTEgMzMuMTI2MjkzLTYuMDk1MjM3NSAwLTEwLjg2NTQyMzUgMC0yNC4zODA5NTIzLTYuNjI1MjU4bC0yNy44MjYwODY3LTE1LjkwMDYyYy02Ljg5MDI2ODg5LTMuOTc1MTU3LTExLjEzMDQzNDctMTEuMzk1NDQ2LTExLjEzMDQzNDctMTkuMzQ1NzU4di0xMjIuMTY5NzcyM2MwLTcuOTUwMzA5MiA0LjI0MDE2NTgxLTE1LjM3MDYwMDUgMTEuMTMwNDM0Ny0xOS4zNDU3NTUxbDEwNS43MzkxMjkzLTYxLjIxNzM5MzA4YzYuNjI1MjYtMy43MTAxNDMzNiAxNS42MzU2MTItMy43MTAxNDMzNiAyMi4yNjA4NzIgMGwxMDUuNzM5MTI5IDYxLjIxNzM5MzA4YzYuODkwMjY5IDMuOTc1MTU0NiAxMS4xMzA0MzUgMTEuMzk1NDQ1OSAxMS4xMzA0MzUgMTkuMzQ1NzU1MXYxMjIuMTY5NzcyM2MwIDcuOTUwMzEyLTQuMjQwMTY2IDE1LjM3MDYwMS0xMS4xMzA0MzUgMTkuMzQ1NzU4bC0xMDUuNzM5MTI5IDYxLjIxNzM5Yy0zLjQ0NTEzNyAxLjU5MDA2My03LjQyMDI5MSAyLjM4NTA5NS0xMS4xMzA0MzcgMi4zODUwOTV6bTMyLjU5NjI3NS04NC4wMDgyODNjLTQ2LjM3NjgxMyAwLTU1LjkxNzE4NS0yMS4yMDA4MjktNTUuOTE3MTg1LTM5LjIyMTUzMyAwLTEuNTkwMDYyIDEuMzI1MDUyLTMuMTgwMTIzIDMuMTgwMTIzLTMuMTgwMTIzaDEzLjc4MDU0YzEuNTkwMDYxIDAgMi45MTUxMTIgMS4wNjAwNCAyLjkxNTExMiAyLjY1MDEwMyAyLjEyMDA4MyAxNC4wNDU1NDkgOC4yMTUzMjMgMjAuOTM1ODE4IDM2LjMwNjQxOSAyMC45MzU4MTggMjIuMjYwODcxIDAgMzEuODAxMjQzLTUuMDM1MTk3IDMxLjgwMTI0My0xNi45NjA2NjMgMC02Ljg5MDI2OS0yLjY1MDEwMy0xMS45MjU0NjYtMzcuMzY2NDYxLTE1LjM3MDYwMS0yOC44ODYxMjctMi45MTUxMTQtNDYuOTA2ODMtOS4yNzUzNjMtNDYuOTA2ODMtMzIuMzMxMjYzIDAtMjEuNDY1ODM4NSAxOC4wMjA3MDMtMzQuMTg2MzM1OSA0OC4yMzE4ODQtMzQuMTg2MzM1OSAzMy45MjEzMjQgMCA1MC42MTY5NzYgMTEuNjYwNDU3MSA1Mi43MzcwNTkgMzcuMTAxNDQ5OSAwIC43OTUwMzEtLjI2NTAxMSAxLjU5MDA2My0uNzk1MDMxIDIuMzg1MDk0LS41MzAwMi41MzAwMi0xLjMyNTA1MiAxLjA2MDA0LTIuMTIwMDgzIDEuMDYwMDRoLTEzLjc4MDUzOGMtMS4zMjUwNTEgMC0yLjY1MDEwMy0xLjA2MDA0LTIuOTE1MTE0LTIuMzg1MDkyLTMuMTgwMTIzLTE0LjU3NTU2OS0xMS4zOTU0NDYtMTkuMzQ1NzU3LTMzLjEyNjI5My0xOS4zNDU3NTctMjQuMzgwOTU0IDAtMjcuMjk2MDY2IDguNDgwMzMyLTI3LjI5NjA2NiAxNC44NDA1OCAwIDcuNjg1MzAxIDMuNDQ1MTM0IDEwLjA3MDM5NSAzNi4zMDY0MTggMTQuMzEwNTYxIDMyLjU5NjI3MyA0LjI0MDE2NSA0Ny45NjY4NzMgMTAuMzM1NDAzIDQ3Ljk2Njg3MyAzMy4xMjYyOTItLjI2NTAxMSAyMy4zMjA5MTItMTkuMzQ1NzU1IDM2LjU3MTQzLTUzLjAwMjA3IDM2LjU3MTQzeiIvPjwvc3ZnPg==;perimeterSpacing=5;labelPosition=center;align=center;" parent="tuFBvk_88zkTL_cLm5_9-24" vertex="1">
          <mxGeometry x="72.5" y="128" width="50" height="56.45" as="geometry" />
        </mxCell>
        <mxCell id="nscVDXiTjaIWTb4TKJuX-4" style="edgeStyle=orthogonalEdgeStyle;rounded=0;orthogonalLoop=1;jettySize=auto;html=1;exitX=0.25;exitY=0;exitDx=0;exitDy=0;exitPerimeter=0;entryX=0.25;entryY=1;entryDx=0;entryDy=0;" edge="1" parent="tuFBvk_88zkTL_cLm5_9-24" source="chfDgAv3UPU1zFlklX3F-6" target="chfDgAv3UPU1zFlklX3F-8">
          <mxGeometry relative="1" as="geometry" />
        </mxCell>
        <mxCell id="nscVDXiTjaIWTb4TKJuX-5" style="edgeStyle=orthogonalEdgeStyle;rounded=0;orthogonalLoop=1;jettySize=auto;html=1;exitX=0.75;exitY=1;exitDx=0;exitDy=0;entryX=0.75;entryY=0;entryDx=0;entryDy=0;entryPerimeter=0;" edge="1" parent="tuFBvk_88zkTL_cLm5_9-24" source="chfDgAv3UPU1zFlklX3F-8" target="chfDgAv3UPU1zFlklX3F-6">
          <mxGeometry relative="1" as="geometry" />
        </mxCell>
        <mxCell id="chfDgAv3UPU1zFlklX3F-5" value="Extension" style="sketch=0;points=[[0,0,0],[0.25,0,0],[0.5,0,0],[0.75,0,0],[1,0,0],[0,1,0],[0.25,1,0],[0.5,1,0],[0.75,1,0],[1,1,0],[0,0.25,0],[0,0.5,0],[0,0.75,0],[1,0.25,0],[1,0.5,0],[1,0.75,0]];gradientDirection=north;outlineConnect=0;fontColor=#232F3E;gradientColor=none;fillColor=#1E262E;strokeColor=#ffffff;dashed=0;verticalLabelPosition=top;verticalAlign=bottom;align=center;html=1;fontSize=12;fontStyle=0;aspect=fixed;shape=mxgraph.aws4.resourceIcon;resIcon=mxgraph.aws4.general;perimeterSpacing=5;labelPosition=center;" parent="tuFBvk_88zkTL_cLm5_9-24" vertex="1">
          <mxGeometry x="293.5" y="131.23000000000002" width="50" height="50" as="geometry" />
        </mxCell>
        <mxCell id="nscVDXiTjaIWTb4TKJuX-9" style="edgeStyle=orthogonalEdgeStyle;rounded=0;orthogonalLoop=1;jettySize=auto;html=1;exitX=0.5;exitY=0;exitDx=0;exitDy=0;exitPerimeter=0;" edge="1" parent="tuFBvk_88zkTL_cLm5_9-24" source="nscVDXiTjaIWTb4TKJuX-7" target="chfDgAv3UPU1zFlklX3F-5">
          <mxGeometry relative="1" as="geometry" />
        </mxCell>
        <mxCell id="T6meFXSfDmg1OWBkKdC4-1" value="The Runtime API triggers the function code" style="text;strokeColor=none;align=center;fillColor=none;html=1;verticalAlign=middle;whiteSpace=wrap;rounded=1;fontSize=8;" vertex="1" parent="tuFBvk_88zkTL_cLm5_9-24">
          <mxGeometry x="15" y="219" width="65" height="30" as="geometry" />
        </mxCell>
        <mxCell id="_Bsiqc9jS7G1OIy-XSQ7-2" value="The Telemetry API sends all log events to all registered extensions" style="text;strokeColor=none;align=center;fillColor=none;html=1;verticalAlign=middle;whiteSpace=wrap;rounded=1;fontSize=8;" vertex="1" parent="tuFBvk_88zkTL_cLm5_9-24">
          <mxGeometry x="329" y="219" width="74" height="30" as="geometry" />
        </mxCell>
        <mxCell id="_Bsiqc9jS7G1OIy-XSQ7-3" value="The invocation logs are handled by the Runtime API" style="text;strokeColor=none;align=center;fillColor=none;html=1;verticalAlign=middle;whiteSpace=wrap;rounded=1;fontSize=8;" vertex="1" parent="tuFBvk_88zkTL_cLm5_9-24">
          <mxGeometry x="122.5" y="219" width="76.5" height="30" as="geometry" />
        </mxCell>
        <mxCell id="chfDgAv3UPU1zFlklX3F-6" value="Runtime API" style="sketch=0;points=[[0,0,0],[0.25,0,0],[0.5,0,0],[0.75,0,0],[1,0,0],[0,1,0],[0.25,1,0],[0.5,1,0],[0.75,1,0],[1,1,0],[0,0.25,0],[0,0.5,0],[0,0.75,0],[1,0.25,0],[1,0.5,0],[1,0.75,0]];gradientDirection=north;outlineConnect=0;fontColor=#232F3E;gradientColor=none;fillColor=#1E262E;strokeColor=#ffffff;dashed=0;verticalLabelPosition=bottom;verticalAlign=top;align=center;html=1;fontSize=12;fontStyle=0;aspect=fixed;shape=mxgraph.aws4.resourceIcon;resIcon=mxgraph.aws4.general;perimeterSpacing=5;" parent="tuFBvk_88zkTL_cLm5_9-24" vertex="1">
          <mxGeometry x="72.5" y="286" width="50" height="50" as="geometry" />
        </mxCell>
        <mxCell id="nscVDXiTjaIWTb4TKJuX-7" value="Telemetry API" style="sketch=0;points=[[0,0,0],[0.25,0,0],[0.5,0,0],[0.75,0,0],[1,0,0],[0,1,0],[0.25,1,0],[0.5,1,0],[0.75,1,0],[1,1,0],[0,0.25,0],[0,0.5,0],[0,0.75,0],[1,0.25,0],[1,0.5,0],[1,0.75,0]];gradientDirection=north;outlineConnect=0;fontColor=#232F3E;gradientColor=none;fillColor=#1E262E;strokeColor=#ffffff;dashed=0;verticalLabelPosition=bottom;verticalAlign=top;align=center;html=1;fontSize=12;fontStyle=0;aspect=fixed;shape=mxgraph.aws4.resourceIcon;resIcon=mxgraph.aws4.general;perimeterSpacing=5;" vertex="1" parent="tuFBvk_88zkTL_cLm5_9-24">
          <mxGeometry x="293.5" y="286" width="50" height="50" as="geometry" />
        </mxCell>
        <mxCell id="nscVDXiTjaIWTb4TKJuX-8" style="edgeStyle=orthogonalEdgeStyle;rounded=0;orthogonalLoop=1;jettySize=auto;html=1;entryX=0;entryY=0.5;entryDx=0;entryDy=0;entryPerimeter=0;" edge="1" parent="tuFBvk_88zkTL_cLm5_9-24" source="chfDgAv3UPU1zFlklX3F-6" target="nscVDXiTjaIWTb4TKJuX-7">
          <mxGeometry relative="1" as="geometry" />
        </mxCell>
        <mxCell id="KC3xq8jwCQPXp9tBLLmZ-9" value="The runtime&amp;nbsp; and invocation logs are sent to the Telemetry API" style="text;strokeColor=none;align=center;fillColor=none;html=1;verticalAlign=middle;whiteSpace=wrap;rounded=1;fontSize=8;" parent="tuFBvk_88zkTL_cLm5_9-24" vertex="1">
          <mxGeometry x="173" y="326" width="60" height="30" as="geometry" />
        </mxCell>
        <mxCell id="P9NamyRKtRBUNo8rRp3y-3" style="edgeStyle=orthogonalEdgeStyle;rounded=1;orthogonalLoop=1;jettySize=auto;html=1;entryX=0;entryY=0.5;entryDx=0;entryDy=0;entryPerimeter=0;" parent="tuFBvk_88zkTL_cLm5_9-24" source="P9NamyRKtRBUNo8rRp3y-1" edge="1" target="chfDgAv3UPU1zFlklX3F-6">
          <mxGeometry relative="1" as="geometry">
            <mxPoint x="42" y="237" as="targetPoint" />
          </mxGeometry>
        </mxCell>
        <mxCell id="P9NamyRKtRBUNo8rRp3y-1" value="End Users" style="sketch=0;outlineConnect=0;fontColor=#232F3E;gradientColor=none;fillColor=#232F3D;strokeColor=none;dashed=0;verticalLabelPosition=bottom;verticalAlign=top;align=center;html=1;fontSize=12;fontStyle=0;aspect=fixed;pointerEvents=1;shape=mxgraph.aws4.users;perimeterSpacing=5;rounded=1;" parent="tuFBvk_88zkTL_cLm5_9-24" vertex="1">
          <mxGeometry x="-125" y="286" width="50" height="50" as="geometry" />
        </mxCell>
        <mxCell id="_Bsiqc9jS7G1OIy-XSQ7-6" value="" style="shape=image;verticalLabelPosition=bottom;labelBackgroundColor=default;verticalAlign=top;aspect=fixed;imageAspect=0;image=data:image/svg+xml,PHN2ZyB4bWxuczp4bGluaz0iaHR0cDovL3d3dy53My5vcmcvMTk5OS94bGluayIgeG1sbnM9Imh0dHA6Ly93d3cudzMub3JnLzIwMDAvc3ZnIiB4bWw6c3BhY2U9InByZXNlcnZlIiBzdHlsZT0iZW5hYmxlLWJhY2tncm91bmQ6bmV3IDAgMCAxMjIuODggMTIyLjg4IiB2aWV3Qm94PSIwIDAgMTIyLjg4IDEyMi44OCIgeT0iMHB4IiB4PSIwcHgiIGlkPSJMYXllcl8xIiB2ZXJzaW9uPSIxLjEiPjxzdHlsZSB0eXBlPSJ0ZXh0L2NzcyI+LnN0MHtmaWxsLXJ1bGU6ZXZlbm9kZDtjbGlwLXJ1bGU6ZXZlbm9kZDtmaWxsOiMyNTI0MjI7fTwvc3R5bGU+PGc+PHBhdGggZD0iTTEwMS40NCw0Ni4yNWMwLjgyLTEuODQsMi45Ny0yLjY4LDQuODEtMS44NmMxLjg0LDAuODIsMi42NywyLjk4LDEuODYsNC44MmMtMC44MiwxLjg1LTIuOTcsMi42OC00LjgxLDEuODYgQzEwMS40NSw1MC4yNSwxMDAuNjIsNDguMSwxMDEuNDQsNDYuMjVMMTAxLjQ0LDQ2LjI1eiBNNTguNzMsMTEuODhjMS40Ni0xLjM5LDMuNzctMS4zNCw1LjE2LDAuMTJjMS4zOSwxLjQ2LDEuMzQsMy43Ny0wLjEyLDUuMTcgYy0xLjQ2LDEuMzktMy43NiwxLjM0LTUuMTYtMC4xMkM1Ny4yMiwxNS41OCw1Ny4yNywxMy4yNyw1OC43MywxMS44OEw1OC43MywxMS44OHogTTEwNi4zNiw2MS4wNWMwLDEuMTItMC4wNCwyLjIzLTAuMTIsMy4zNCBoLTQuNjFjLTAuNDYsMC0wLjY1LDAuMy0wLjY1LDAuNzV2Mi4xMmMwLDQuOTgtMi44MSw2LjA3LTUuMjcsNi4zNGMtMi4zNCwwLjI2LTQuOTQtMC45OC01LjI2LTIuNDIgYy0xLjM4LTcuNzgtMy42OS05LjQ0LTcuMzMtMTIuMzFjNC41Mi0yLjg3LDkuMjItNy4xLDkuMjItMTIuNzZjMC02LjEyLTQuMTktOS45Ny03LjA1LTExLjg2Yy00LjAxLTIuNjQtOC40NS0zLjE3LTkuNjUtMy4xNyBIMjcuOTdjNi40Ni03LjIxLDE1LjIyLTEyLjMyLDI1LjEzLTE0LjE4bDUuNjIsNS44OWMxLjI3LDEuMzMsMy4zNywxLjM4LDQuNywwLjExbDYuMjktNi4wMWMxMy4xNywyLjQ1LDI0LjMzLDEwLjY1LDMwLjc1LDIxLjkgbC00LjMsOS43MmMtMC43NCwxLjY4LDAuMDIsMy42NSwxLjY5LDQuNGw4LjI5LDMuNjhDMTA2LjI5LDU4LjA1LDEwNi4zNiw1OS41NCwxMDYuMzYsNjEuMDVMMTA2LjM2LDYxLjA1eiBNNTEuMjYsNTMuNDN2LTguNDYgaDE1LjE2YzAuNzgsMCw1LjUzLDAuOTEsNS41Myw0LjQ1YzAsMi45NS0zLjY0LDQtNi42Myw0TDUxLjI2LDUzLjQzTDUxLjI2LDUzLjQzTDUxLjI2LDUzLjQzeiBNMTYuNzcsNTYuMjJsNy44Ni0zLjQ5IGMxLjY4LTAuNzUsMi40NC0yLjcxLDEuNjktNC40bC0xLjYyLTMuNjZoNi4zN3YyOC43SDE4LjIzYy0xLjExLTMuOTItMS43MS04LjA1LTEuNzEtMTIuMzJDMTYuNTEsNTkuNDEsMTYuNiw1Ny44LDE2Ljc3LDU2LjIyIEwxNi43Nyw1Ni4yMnogTTIxLjA1LDQ2LjA3YzAuODIsMS44NC0wLjAxLDQuMDEtMS44Niw0LjgyYy0xLjg0LDAuODItNC0wLjAxLTQuODEtMS44NmMtMC44Mi0xLjg1LDAuMDEtNCwxLjg2LTQuODIgQzE4LjA4LDQzLjM5LDIwLjI0LDQ0LjIzLDIxLjA1LDQ2LjA3TDIxLjA1LDQ2LjA3eiBNMzQuOTgsMTAyLjU1Yy0xLjk3LDAuNDMtMy45MS0wLjgzLTQuMzMtMi44Yy0wLjQyLTEuOTgsMC44My0zLjkyLDIuOC00LjM0IGMxLjk3LTAuNDIsMy45MSwwLjgzLDQuMzMsMi44MUMzOC4yLDEwMC4xOCwzNi45NSwxMDIuMTMsMzQuOTgsMTAyLjU1TDM0Ljk4LDEwMi41NXogTTg1Ljc2LDkwLjg3Yy0xLjgtMC4zOS0zLjU3LDAuNzYtMy45NSwyLjU2IGwtMS44Myw4LjU1Yy01LjY1LDIuNTctMTEuOTMsMy45OS0xOC41NCwzLjk5Yy02Ljc2LDAtMTMuMTctMS41LTE4LjkzLTQuMTdsLTEuODMtOC41NWMtMC4zOS0xLjgtMi4xNS0yLjk0LTMuOTUtMi41NmwtNy41NSwxLjYyIGMtMS40LTEuNDQtMi43LTIuOTgtMy45LTQuNkg2MmMwLjQyLDAsMC42OS0wLjA4LDAuNjktMC40NVY3NC4yN2MwLTAuMzgtMC4yOC0wLjQ1LTAuNjktMC40NUg1MS4yNnYtOC4yM2gxMS42MSBjMS4wNiwwLDUuNjcsMC4zLDcuMTQsNi4xOWMwLjQ2LDEuODEsMS40Nyw3LjcsMi4xNyw5LjU5YzAuNjksMi4xMiwzLjUsNi4zNCw2LjUsNi4zNGgxOC4yOWMwLjIxLDAsMC40My0wLjAyLDAuNjYtMC4wNyBjLTEuMjcsMS43Mi0yLjY2LDMuMzYtNC4xNiw0Ljg4TDg1Ljc2LDkwLjg3TDg1Ljc2LDkwLjg3eiBNODcuNTEsMTAyLjczYy0xLjk3LTAuNDMtMy4yMi0yLjM3LTIuOC00LjM0IGMwLjQyLTEuOTcsMi4zNi0zLjIzLDQuMzMtMi44YzEuOTcsMC40MiwzLjIzLDIuMzcsMi44LDQuMzRDOTEuNDIsMTAxLjg5LDg5LjQ4LDEwMy4xNSw4Ny41MSwxMDIuNzNMODcuNTEsMTAyLjczeiBNMTIyLjA0LDU5LjkzIGwtNS4xNi0zLjE5Yy0wLjA0LTAuNS0wLjA5LTEtMC4xNS0xLjVsNC40My00LjEzYzAuNDUtMC40MiwwLjY1LTEuMDQsMC41My0xLjY0Yy0wLjEyLTAuNi0wLjU0LTEuMS0xLjEyLTEuMzJsLTUuNjctMi4xMiBjLTAuMTQtMC40OS0wLjI5LTAuOTgtMC40NC0xLjQ2bDMuNTMtNC45MWMwLjM2LTAuNSwwLjQzLTEuMTUsMC4yLTEuNzJjLTAuMjMtMC41Ny0wLjc1LTAuOTctMS4zNS0xLjA3bC01Ljk4LTAuOTcgYy0wLjIzLTAuNDUtMC40Ny0wLjktMC43Mi0xLjM0bDIuNTEtNS41MWMwLjI2LTAuNTYsMC4yLTEuMjEtMC4xNC0xLjcyYy0wLjM0LTAuNTEtMC45Mi0wLjgxLTEuNTQtMC43OWwtNi4wNywwLjIxIGMtMC4zMS0wLjM5LTAuNjMtMC43OC0wLjk2LTEuMTZsMS4zOS01LjkxYzAuMTQtMC42LTAuMDQtMS4yMy0wLjQ3LTEuNjZjLTAuNDMtMC40My0xLjA2LTAuNjEtMS42Ni0wLjQ3bC01LjkxLDEuMzkgYy0wLjM4LTAuMzItMC43Ny0wLjY0LTEuMTYtMC45NmwwLjIxLTYuMDdjMC4wMi0wLjYxLTAuMjgtMS4yLTAuNzktMS41NGMtMC41MS0wLjM0LTEuMTYtMC4zOS0xLjcyLTAuMTRsLTUuNTEsMi41MSBjLTAuNDQtMC4yNC0wLjg5LTAuNDktMS4zNC0wLjcybC0wLjk3LTUuOThjLTAuMS0wLjYxLTAuNS0xLjEyLTEuMDctMS4zNWMtMC41Ny0wLjI0LTEuMjItMC4xNi0xLjcyLDAuMmwtNC45MSwzLjU0IGMtMC40OC0wLjE1LTAuOTctMC4zLTEuNDYtMC40NEw3NC43NCwyLjNjLTAuMjEtMC41OC0wLjcxLTEtMS4zMi0xLjEyYy0wLjYtMC4xMi0xLjIyLDAuMDgtMS42NCwwLjUzbC00LjE0LDQuNDQgYy0wLjUtMC4wNi0xLTAuMTEtMS41LTAuMTVsLTMuMTktNS4xNkM2Mi42MywwLjMyLDYyLjA2LDAsNjEuNDQsMGMtMC42MiwwLTEuMTksMC4zMi0xLjUxLDAuODRMNTYuNzQsNmMtMC41LDAuMDQtMSwwLjA5LTEuNSwwLjE1IEw1MS4xLDEuNzFjLTAuNDItMC40NS0xLjA0LTAuNjUtMS42NC0wLjUzYy0wLjYsMC4xMi0xLjEsMC41NC0xLjMyLDEuMTJsLTIuMTIsNS42N2MtMC40OSwwLjE0LTAuOTgsMC4yOS0xLjQ2LDAuNDRsLTQuOTEtMy41NCBjLTAuNS0wLjM2LTEuMTUtMC40NC0xLjcyLTAuMmMtMC41NywwLjIzLTAuOTcsMC43NS0xLjA3LDEuMzVsLTAuOTcsNS45OGMtMC40NSwwLjIzLTAuOSwwLjQ3LTEuMzQsMC43MmwtNS41MS0yLjUxIGMtMC41Ni0wLjI2LTEuMjEtMC4yLTEuNzIsMC4xNGMtMC41MSwwLjM0LTAuODEsMC45Mi0wLjc5LDEuNTRsMC4yMSw2LjA3Yy0wLjM5LDAuMzEtMC43OCwwLjYzLTEuMTYsMC45NmwtNS45MS0xLjM5IGMtMC42LTAuMTQtMS4yMywwLjA0LTEuNjYsMC40N2MtMC40NCwwLjQ0LTAuNjEsMS4wNi0wLjQ3LDEuNjZsMS4zOSw1LjkxYy0wLjMyLDAuMzgtMC42NCwwLjc3LTAuOTYsMS4xNmwtNi4wNy0wLjIxIGMtMC42MS0wLjAyLTEuMiwwLjI4LTEuNTQsMC43OWMtMC4zNCwwLjUxLTAuMzksMS4xNi0wLjE0LDEuNzJsMi41MSw1LjUxYy0wLjI0LDAuNDQtMC40OSwwLjg5LTAuNzIsMS4zNGwtNS45OCwwLjk3IGMtMC42MSwwLjEtMS4xMiwwLjUtMS4zNSwxLjA3Yy0wLjIzLDAuNTctMC4xNiwxLjIyLDAuMiwxLjcybDMuNTQsNC45MWMtMC4xNSwwLjQ4LTAuMywwLjk3LTAuNDQsMS40NkwyLjMsNDguMTQgYy0wLjU4LDAuMjEtMSwwLjcxLTEuMTIsMS4zMmMtMC4xMiwwLjYsMC4wOCwxLjIyLDAuNTMsMS42NGw0LjQzLDQuMTNjLTAuMDUsMC41LTAuMSwxLTAuMTUsMS41bC01LjE2LDMuMTkgQzAuMzIsNjAuMjYsMCw2MC44MywwLDYxLjQ0YzAsMC42MiwwLjMyLDEuMTksMC44NCwxLjUxTDYsNjYuMTRjMC4wNCwwLjUsMC4wOSwxLDAuMTUsMS41bC00LjQzLDQuMTQgYy0wLjQ1LDAuNDItMC42NSwxLjA0LTAuNTMsMS42NGMwLjEyLDAuNiwwLjU0LDEuMSwxLjEyLDEuMzJsNS42NywyLjEyYzAuMTQsMC40OSwwLjI5LDAuOTgsMC40NCwxLjQ2bC0zLjU0LDQuOTEgYy0wLjM2LDAuNS0wLjQ0LDEuMTUtMC4yLDEuNzJjMC4yNCwwLjU3LDAuNzUsMC45OCwxLjM2LDEuMDdMMTIuMDEsODdjMC4yMywwLjQ1LDAuNDcsMC45LDAuNzIsMS4zNGwtMi41MSw1LjUxIGMtMC4yNiwwLjU2LTAuMiwxLjIxLDAuMTQsMS43MmMwLjM0LDAuNTEsMC45MywwLjgxLDEuNTQsMC43OWw2LjA2LTAuMjFjMC4zMiwwLjM5LDAuNjMsMC43OCwwLjk2LDEuMTZsLTEuMzksNS45MSBjLTAuMTQsMC42LDAuMDQsMS4yMiwwLjQ3LDEuNjZjMC40MywwLjQ0LDEuMDYsMC42MSwxLjY2LDAuNDdsNS45MS0xLjM5YzAuMzgsMC4zMywwLjc3LDAuNjQsMS4xNiwwLjk2bC0wLjIxLDYuMDcgYy0wLjAyLDAuNjEsMC4yOCwxLjIsMC43OSwxLjU0YzAuNTEsMC4zNCwxLjE2LDAuMzksMS43MiwwLjE0bDUuNTEtMi41MWMwLjQ0LDAuMjUsMC44OSwwLjQ5LDEuMzQsMC43MmwwLjk3LDUuOTcgYzAuMSwwLjYxLDAuNSwxLjEyLDEuMDcsMS4zNmMwLjU3LDAuMjQsMS4yMiwwLjE2LDEuNzItMC4ybDQuOTEtMy41NGMwLjQ4LDAuMTUsMC45NywwLjMsMS40NiwwLjQ1bDIuMTIsNS42NyBjMC4yMSwwLjU4LDAuNzEsMSwxLjMyLDEuMTJjMC42LDAuMTIsMS4yMi0wLjA4LDEuNjQtMC41M2w0LjE0LTQuNDNjMC41LDAuMDYsMSwwLjExLDEuNSwwLjE1bDMuMTksNS4xNiBjMC4zMiwwLjUyLDAuODksMC44NCwxLjUxLDAuODRjMC42MiwwLDEuMTktMC4zMiwxLjUxLTAuODRsMy4xOS01LjE2YzAuNS0wLjA0LDEtMC4wOSwxLjUtMC4xNWw0LjE0LDQuNDMgYzAuNDIsMC40NSwxLjA0LDAuNjUsMS42NCwwLjUzYzAuNi0wLjEyLDEuMS0wLjU0LDEuMzItMS4xMmwyLjEyLTUuNjdjMC40OS0wLjE0LDAuOTgtMC4yOSwxLjQ2LTAuNDVsNC45MSwzLjU0IGMwLjUsMC4zNiwxLjE1LDAuNDMsMS43MiwwLjJjMC41Ny0wLjIzLDAuOTctMC43NSwxLjA3LTEuMzZsMC45Ny01Ljk3YzAuNDUtMC4yMywwLjktMC40OCwxLjM0LTAuNzJsNS41MSwyLjUxIGMwLjU2LDAuMjYsMS4yMSwwLjIsMS43Mi0wLjE0YzAuNTEtMC4zNCwwLjgxLTAuOTIsMC43OS0xLjU0bC0wLjIxLTYuMDdjMC4zOS0wLjMxLDAuNzgtMC42MywxLjE2LTAuOTZsNS45MSwxLjM5IGMwLjYsMC4xNCwxLjIzLTAuMDMsMS42Ni0wLjQ3YzAuNDQtMC40NCwwLjYxLTEuMDYsMC40Ny0xLjY2bC0xLjM5LTUuOTFjMC4zMi0wLjM4LDAuNjQtMC43NywwLjk2LTEuMTZsNi4wNywwLjIxIGMwLjYxLDAuMDIsMS4yLTAuMjgsMS41NC0wLjc5YzAuMzQtMC41MSwwLjQtMS4xNiwwLjE0LTEuNzJsLTIuNTEtNS41MWMwLjI1LTAuNDUsMC40OS0wLjg5LDAuNzItMS4zNGw1Ljk4LTAuOTcgYzAuNjEtMC4xLDEuMTItMC41LDEuMzUtMS4wN2MwLjI0LTAuNTcsMC4xNi0xLjIyLTAuMi0xLjcybC0zLjU0LTQuOTFjMC4xNS0wLjQ5LDAuMy0wLjk3LDAuNDQtMS40Nmw1LjY3LTIuMTIgYzAuNTgtMC4yMiwxLTAuNzEsMS4xMi0xLjMyYzAuMTItMC42LTAuMDgtMS4yMi0wLjUzLTEuNjRsLTQuNDMtNC4xNGMwLjA1LTAuNSwwLjEtMSwwLjE1LTEuNWw1LjE2LTMuMTkgYzAuNTItMC4zMiwwLjg0LTAuODksMC44NC0xLjUxQzEyMi44OCw2MC44MywxMjIuNTYsNjAuMjYsMTIyLjA0LDU5LjkzTDEyMi4wNCw1OS45M3oiIGNsYXNzPSJzdDAiLz48L2c+PC9zdmc+;" vertex="1" parent="tuFBvk_88zkTL_cLm5_9-24">
          <mxGeometry x="246.00039215686274" y="71.99882352941177" width="20" height="20" as="geometry" />
        </mxCell>
        <mxCell id="deeNJldHTBCf-zLZ4GmC-22" style="edgeStyle=orthogonalEdgeStyle;rounded=1;orthogonalLoop=1;jettySize=auto;html=1;" parent="1" edge="1">
          <mxGeometry relative="1" as="geometry">
            <mxPoint x="225" y="968" as="targetPoint" />
          </mxGeometry>
        </mxCell>
        <mxCell id="deeNJldHTBCf-zLZ4GmC-33" style="edgeStyle=orthogonalEdgeStyle;rounded=1;orthogonalLoop=1;jettySize=auto;html=1;exitX=0;exitY=0.75;exitDx=0;exitDy=0;entryX=1;entryY=0.75;entryDx=0;entryDy=0;" parent="1" edge="1">
          <mxGeometry relative="1" as="geometry">
            <mxPoint x="445" y="953" as="sourcePoint" />
          </mxGeometry>
        </mxCell>
        <mxCell id="deeNJldHTBCf-zLZ4GmC-32" style="edgeStyle=orthogonalEdgeStyle;rounded=1;orthogonalLoop=1;jettySize=auto;html=1;exitX=1;exitY=0.25;exitDx=0;exitDy=0;entryX=0;entryY=0.25;entryDx=0;entryDy=0;" parent="1" edge="1">
          <mxGeometry relative="1" as="geometry">
            <mxPoint x="445" y="923" as="targetPoint" />
          </mxGeometry>
        </mxCell>
        <mxCell id="chfDgAv3UPU1zFlklX3F-1" value="Sentry" style="shape=image;verticalLabelPosition=middle;labelBackgroundColor=none;verticalAlign=middle;aspect=fixed;imageAspect=0;image=data:image/svg+xml,PHN2ZyB4bWxucz0iaHR0cDovL3d3dy53My5vcmcvMjAwMC9zdmciIHByZXNlcnZlQXNwZWN0UmF0aW89InhNaW5ZTWluIG1lZXQiIHZpZXdCb3g9IjAgMCAyNTYgMjMwIiBoZWlnaHQ9IjIyNDYiIHdpZHRoPSIyNTAwIj48cGF0aCBmaWxsPSIjRkIyRDI2IiBkPSJNMjUxLjIyIDE4Ny44NTZjNS43ODUgMTAuMDQ1IDYuMzQ1IDIwLjYwOCAxLjUzOCAyOC45NTgtNC44IDguMzU3LTE0LjE5MiAxMy4xNDMtMjUuNzY4IDEzLjE0M2gtMjEuODE2Yy4yNTktNC4wNjguNDMxLTguMTcuNDMxLTEyLjMwMiAwLTQuNjI4LS4yMTUtOS4xOTgtLjUzMS0xMy43NTRsMTQuMzUtLjAxNGMzLjUyOCAwIDYuMzgtMi44NjcgNi4zOC02LjQwM2E2LjQ2IDYuNDYgMCAwIDAtLjc2OC0zLjA1M2wtOTEuNDYtMTU4Ljk3YTYuMzQ5IDYuMzQ5IDAgMCAwLTUuNTQtMy4yNCA2LjM3NCA2LjM3NCAwIDAgMC01LjQ2MSAzLjA5bC0xNC41MjIgMjUuMjQzYzQ0LjEzNCAzMy4yNyA3My44MDQgODQuODEzIDc3Ljg2NCAxNDMuMzMzLjMxNiA0LjU0OC41MzEgOS4xMTkuNTMxIDEzLjc1MyAwIDQuMTMyLS4xNzIgOC4yMjgtLjQyNCAxMi4zMDJoLTcxLjI0NmMuMzg4LTQuMDUzLjYxMS04LjE0OC42MTEtMTIuMzAyIDAtNC42NDktLjI3My05LjIzMy0uNzc2LTEzLjc1My0zLjUyLTMyLjIwNi0xOS4yODYtNjAuNzQ4LTQyLjUwMy04MC44OWwtMTAuMDAzIDE3LjM3NmMxNy41NCAxNi4zMjUgMjkuNTEyIDM4LjU1OCAzMi43NjcgNjMuNTE0LjU5IDQuNTA1LjkyIDkuMDkuOTIgMTMuNzUzIDAgNC4xNTQtLjI3MyA4LjI2NC0uNzQgMTIuMzAySDI5LjAxYy0xMS41NzYgMC0yMC45NjgtNC43OTMtMjUuNzY4LTEzLjE1LTQuODA3LTguMzUtNC4yNDctMTguOTA1IDEuNTM4LTI4Ljk1OGwxMy41Ni0yMy4yMzhhNzkuNDIgNzkuNDIgMCAwIDEgMjAuNzE1IDE2LjA1MmwtOC4wODMgMTMuNzY4YTYuNTIzIDYuNTIzIDAgMCAwLS43NyAzLjA1NCA2LjM4MyA2LjM4MyAwIDAgMCA2LjM4MiA2LjM5NWwzMi4wMzMuMDE1Yy0yLjY4Ny0xNS4zNTYtOS43NzItMjkuMjEtMTkuOTE4LTQwLjE4My01Ljk3OS02LjQ0NS0xMi45NjMtMTEuOS0yMC43MzgtMTYuMDc0bDM1Ljc3LTYyLjE1YTE1MS40MjcgMTUxLjQyNyAwIDAgMSAyMS41NjQgMTQuNjI0YzMwLjgyNyAyNS4wMTMgNTEuNjQ0IDYxLjk1NSA1NS40MTYgMTAzLjc3NmgxOS4xNzJjLTMuOTEtNDguODkyLTI4LjQ3Ny05Mi4wMDYtNjQuOTM3LTEyMC41NDhhMTcxLjIwNSAxNzEuMjA1IDAgMCAwLTIxLjY3Mi0xNC40NTdsMzAuNTMyLTUzLjA0NUMxMDkuNTgzIDUuNzcgMTE4LjQyIDAgMTI4LjAzNiAwYzkuNjA3IDAgMTguNDM4IDUuNzcgMjQuMjIzIDE1LjgyM2w5OC45NjEgMTcyLjAzM3oiLz48L3N2Zz4=;textShadow=0;labelPosition=right;align=left;spacing=7;" parent="1" vertex="1">
          <mxGeometry x="599" y="845.03" width="20" height="17.97" as="geometry" />
        </mxCell>
        <mxCell id="chfDgAv3UPU1zFlklX3F-4" value="" style="sketch=0;points=[[0,0,0],[0.25,0,0],[0.5,0,0],[0.75,0,0],[1,0,0],[0,1,0],[0.25,1,0],[0.5,1,0],[0.75,1,0],[1,1,0],[0,0.25,0],[0,0.5,0],[0,0.75,0],[1,0.25,0],[1,0.5,0],[1,0.75,0]];gradientDirection=north;outlineConnect=0;fontColor=#232F3E;gradientColor=none;fillColor=#1E262E;strokeColor=#ffffff;dashed=0;verticalLabelPosition=bottom;verticalAlign=top;align=center;html=1;fontSize=12;fontStyle=0;aspect=fixed;shape=mxgraph.aws4.resourceIcon;resIcon=mxgraph.aws4.general;perimeterSpacing=5;" parent="1" vertex="1">
          <mxGeometry x="642.5" y="971.23" width="50" height="50" as="geometry" />
        </mxCell>
        <mxCell id="chfDgAv3UPU1zFlklX3F-9" style="edgeStyle=orthogonalEdgeStyle;rounded=0;orthogonalLoop=1;jettySize=auto;html=1;exitX=1;exitY=0.5;exitDx=0;exitDy=0;exitPerimeter=0;entryX=0;entryY=0.5;entryDx=0;entryDy=0;entryPerimeter=0;" parent="1" source="chfDgAv3UPU1zFlklX3F-5" target="chfDgAv3UPU1zFlklX3F-4" edge="1">
          <mxGeometry relative="1" as="geometry" />
        </mxCell>
        <mxCell id="T6meFXSfDmg1OWBkKdC4-2" value="Any log messages with crash reports are sent to Sentry" style="text;strokeColor=none;align=center;fillColor=none;html=1;verticalAlign=middle;whiteSpace=wrap;rounded=1;fontSize=8;" vertex="1" parent="1">
          <mxGeometry x="631" y="1037" width="73" height="30" as="geometry" />
        </mxCell>
      </root>
    </mxGraphModel>
  </diagram>
</mxfile>
